#usda 1.0
(
    doc = """Reusable 400 kW diesel generator component generated by generate_generator_assets.py."""
    defaultPrim = "Generator"
    metersPerUnit = 1
    upAxis = "Z"
)

def Xform "Generator" (kind = "component")
{
    matrix4d xformOp:transform = ( (1.000, 0.000, 0.000, 0.000), (0.000, 1.000, 0.000, 0.000), (0.000, 0.000, 1.000, 0.000), (0.000, 0.000, 0.000, 1.000) )
    uniform token[] xformOpOrder = ["xformOp:transform"]

    def Scope "Looks"
    {
        def Material "GenBlue"
        {
            token outputs:surface.connect = </Generator/Looks/GenBlue/PreviewSurface.outputs:surface>

            def Shader "PreviewSurface"
            {
                uniform token info:id = "UsdPreviewSurface"
                color3f inputs:diffuseColor = (0.020, 0.180, 0.420)
                float inputs:roughness = 0.420
                float inputs:metallic = 0.000
                token outputs:surface
            }
        }
        def Material "MetalGrey"
        {
            token outputs:surface.connect = </Generator/Looks/MetalGrey/PreviewSurface.outputs:surface>

            def Shader "PreviewSurface"
            {
                uniform token info:id = "UsdPreviewSurface"
                color3f inputs:diffuseColor = (0.450, 0.470, 0.480)
                float inputs:roughness = 0.360
                float inputs:metallic = 0.450
                token outputs:surface
            }
        }
        def Material "RadiatorDark"
        {
            token outputs:surface.connect = </Generator/Looks/RadiatorDark/PreviewSurface.outputs:surface>

            def Shader "PreviewSurface"
            {
                uniform token info:id = "UsdPreviewSurface"
                color3f inputs:diffuseColor = (0.030, 0.035, 0.040)
                float inputs:roughness = 0.680
                float inputs:metallic = 0.100
                token outputs:surface
            }
        }
        def Material "ExhaustSteel"
        {
            token outputs:surface.connect = </Generator/Looks/ExhaustSteel/PreviewSurface.outputs:surface>

            def Shader "PreviewSurface"
            {
                uniform token info:id = "UsdPreviewSurface"
                color3f inputs:diffuseColor = (0.620, 0.600, 0.560)
                float inputs:roughness = 0.310
                float inputs:metallic = 0.650
                token outputs:surface
            }
        }
        def Material "PanelBlack"
        {
            token outputs:surface.connect = </Generator/Looks/PanelBlack/PreviewSurface.outputs:surface>

            def Shader "PreviewSurface"
            {
                uniform token info:id = "UsdPreviewSurface"
                color3f inputs:diffuseColor = (0.005, 0.006, 0.008)
                float inputs:roughness = 0.500
                float inputs:metallic = 0.000
                token outputs:surface
            }
        }
        def Material "FluidAmber"
        {
            token outputs:surface.connect = </Generator/Looks/FluidAmber/PreviewSurface.outputs:surface>

            def Shader "PreviewSurface"
            {
                uniform token info:id = "UsdPreviewSurface"
                color3f inputs:diffuseColor = (0.950, 0.530, 0.080)
                float inputs:roughness = 0.220
                float inputs:metallic = 0.000
                token outputs:surface
            }
        }
        def Material "AlarmRed"
        {
            token outputs:surface.connect = </Generator/Looks/AlarmRed/PreviewSurface.outputs:surface>

            def Shader "PreviewSurface"
            {
                uniform token info:id = "UsdPreviewSurface"
                color3f inputs:diffuseColor = (1.000, 0.030, 0.020)
                float inputs:roughness = 0.250
                float inputs:metallic = 0.000
                token outputs:surface
            }
        }
        def Material "HaloOrange"
        {
            token outputs:surface.connect = </Generator/Looks/HaloOrange/PreviewSurface.outputs:surface>

            def Shader "PreviewSurface"
            {
                uniform token info:id = "UsdPreviewSurface"
                color3f inputs:diffuseColor = (1.000, 0.360, 0.020)
                float inputs:roughness = 0.180
                float inputs:metallic = 0.000
                token outputs:surface
            }
        }
        def Material "LampGreen"
        {
            token outputs:surface.connect = </Generator/Looks/LampGreen/PreviewSurface.outputs:surface>

            def Shader "PreviewSurface"
            {
                uniform token info:id = "UsdPreviewSurface"
                color3f inputs:diffuseColor = (0.050, 0.950, 0.250)
                float inputs:roughness = 0.180
                float inputs:metallic = 0.000
                token outputs:surface
            }
        }
    }
    def Cube "Skid"
    {
        double size = 1
        double3 xformOp:translate = (0.000, 0.000, 0.100)
        double3 xformOp:scale = (4.000, 1.500, 0.200)
        uniform token[] xformOpOrder = ["xformOp:translate", "xformOp:scale"]
        rel material:binding = </Generator/Looks/MetalGrey>
    }
    def Xform "Engine"
    {
        double3 xformOp:translate = (-1.000, 0.000, 0.750)
        uniform token[] xformOpOrder = ["xformOp:translate"]

        def Cube "Block"
        {
            double size = 1
            double3 xformOp:translate = (0.000, 0.000, 0.000)
            double3 xformOp:scale = (1.600, 0.850, 0.950)
            uniform token[] xformOpOrder = ["xformOp:translate", "xformOp:scale"]
            rel material:binding = </Generator/Looks/GenBlue>
        }
        def Cylinder "Turbo"
        {
            uniform token axis = "Y"
            double radius = 0.160
            double height = 0.350
            double3 xformOp:translate = (-0.450, 0.500, 0.330)
            uniform token[] xformOpOrder = ["xformOp:translate"]
            rel material:binding = </Generator/Looks/MetalGrey>
        }
        def Sphere "OverheatHalo"
        {
            double radius = 0.300
            double3 xformOp:translate = (0.000, 0.000, 0.180)
            uniform token[] xformOpOrder = ["xformOp:translate"]
            rel material:binding = </Generator/Looks/HaloOrange>
            token visibility = "invisible"
        }
        def Sphere "OilHalo"
        {
            double radius = 0.220
            double3 xformOp:translate = (-0.250, 0.000, -0.420)
            uniform token[] xformOpOrder = ["xformOp:translate"]
            rel material:binding = </Generator/Looks/HaloOrange>
            token visibility = "invisible"
        }
    }
    def Xform "Alternator"
    {
        double3 xformOp:translate = (0.950, 0.000, 0.800)
        uniform token[] xformOpOrder = ["xformOp:translate"]

        def Cylinder "Housing"
        {
            uniform token axis = "X"
            double radius = 0.420
            double height = 1.200
            double3 xformOp:translate = (0.000, 0.000, 0.000)
            uniform token[] xformOpOrder = ["xformOp:translate"]
            rel material:binding = </Generator/Looks/MetalGrey>
        }
        def Cube "TerminalBox"
        {
            double size = 1
            double3 xformOp:translate = (0.050, -0.310, 0.370)
            double3 xformOp:scale = (0.350, 0.300, 0.280)
            uniform token[] xformOpOrder = ["xformOp:translate", "xformOp:scale"]
            rel material:binding = </Generator/Looks/PanelBlack>
        }
    }
    def Cylinder "CouplingGuard"
    {
        uniform token axis = "X"
        double radius = 0.300
        double height = 0.350
        double3 xformOp:translate = (0.000, 0.000, 0.780)
        uniform token[] xformOpOrder = ["xformOp:translate"]
        rel material:binding = </Generator/Looks/MetalGrey>
    }
    def Xform "Radiator"
    {
        double3 xformOp:translate = (-2.050, 0.000, 1.000)
        uniform token[] xformOpOrder = ["xformOp:translate"]

        def Cube "Core"
        {
            double size = 1
            double3 xformOp:translate = (0.000, 0.000, 0.000)
            double3 xformOp:scale = (0.180, 1.300, 1.300)
            uniform token[] xformOpOrder = ["xformOp:translate", "xformOp:scale"]
            rel material:binding = </Generator/Looks/RadiatorDark>
            color3f[] primvars:displayColor = [(0.030, 0.035, 0.040)]
        }
        def Xform "Fan"
        {
            double3 xformOp:translate = (0.110, 0.000, 0.000)
            double xformOp:rotateY = 90.000
            double xformOp:rotateZ = 0.000
            uniform token[] xformOpOrder = ["xformOp:translate", "xformOp:rotateY", "xformOp:rotateZ"]

            def Cylinder "Hub"
            {
                uniform token axis = "Z"
                double radius = 0.080
                double height = 0.100
                double3 xformOp:translate = (0.000, 0.000, 0.000)
                uniform token[] xformOpOrder = ["xformOp:translate"]
                rel material:binding = </Generator/Looks/MetalGrey>
            }
            def Cube "Blade_1"
            {
                double size = 1
                double3 xformOp:translate = (0.000, 0.260, 0.000)
                double xformOp:rotateZ = 0.000
                double3 xformOp:scale = (0.070, 0.440, 0.025)
                uniform token[] xformOpOrder = ["xformOp:translate", "xformOp:rotateZ", "xformOp:scale"]
                rel material:binding = </Generator/Looks/MetalGrey>
            }
            def Cube "Blade_2"
            {
                double size = 1
                double3 xformOp:translate = (0.000, 0.260, 0.000)
                double xformOp:rotateZ = 60.000
                double3 xformOp:scale = (0.070, 0.440, 0.025)
                uniform token[] xformOpOrder = ["xformOp:translate", "xformOp:rotateZ", "xformOp:scale"]
                rel material:binding = </Generator/Looks/MetalGrey>
            }
            def Cube "Blade_3"
            {
                double size = 1
                double3 xformOp:translate = (0.000, 0.260, 0.000)
                double xformOp:rotateZ = 120.000
                double3 xformOp:scale = (0.070, 0.440, 0.025)
                uniform token[] xformOpOrder = ["xformOp:translate", "xformOp:rotateZ", "xformOp:scale"]
                rel material:binding = </Generator/Looks/MetalGrey>
            }
            def Cube "Blade_4"
            {
                double size = 1
                double3 xformOp:translate = (0.000, 0.260, 0.000)
                double xformOp:rotateZ = 180.000
                double3 xformOp:scale = (0.070, 0.440, 0.025)
                uniform token[] xformOpOrder = ["xformOp:translate", "xformOp:rotateZ", "xformOp:scale"]
                rel material:binding = </Generator/Looks/MetalGrey>
            }
            def Cube "Blade_5"
            {
                double size = 1
                double3 xformOp:translate = (0.000, 0.260, 0.000)
                double xformOp:rotateZ = 240.000
                double3 xformOp:scale = (0.070, 0.440, 0.025)
                uniform token[] xformOpOrder = ["xformOp:translate", "xformOp:rotateZ", "xformOp:scale"]
                rel material:binding = </Generator/Looks/MetalGrey>
            }
            def Cube "Blade_6"
            {
                double size = 1
                double3 xformOp:translate = (0.000, 0.260, 0.000)
                double xformOp:rotateZ = 300.000
                double3 xformOp:scale = (0.070, 0.440, 0.025)
                uniform token[] xformOpOrder = ["xformOp:translate", "xformOp:rotateZ", "xformOp:scale"]
                rel material:binding = </Generator/Looks/MetalGrey>
            }
        }
    }
    def Xform "Exhaust"
    {
        double3 xformOp:translate = (-0.400, 0.450, 1.550)
        uniform token[] xformOpOrder = ["xformOp:translate"]

        def Cylinder "Silencer"
        {
            uniform token axis = "X"
            double radius = 0.220
            double height = 1.100
            double3 xformOp:translate = (0.000, 0.000, 0.000)
            uniform token[] xformOpOrder = ["xformOp:translate"]
            rel material:binding = </Generator/Looks/ExhaustSteel>
        }
        def Cylinder "Stack"
        {
            uniform token axis = "Z"
            double radius = 0.110
            double height = 1.200
            double3 xformOp:translate = (-0.450, 0.000, 0.550)
            uniform token[] xformOpOrder = ["xformOp:translate"]
            rel material:binding = </Generator/Looks/ExhaustSteel>
            color3f[] primvars:displayColor = [(0.620, 0.600, 0.560)]
        }
    }
    def Xform "ControlPanel"
    {
        double3 xformOp:translate = (0.200, -0.800, 1.200)
        uniform token[] xformOpOrder = ["xformOp:translate"]

        def Cube "Enclosure"
        {
            double size = 1
            double3 xformOp:translate = (0.000, 0.000, 0.000)
            double3 xformOp:scale = (0.500, 0.120, 0.700)
            uniform token[] xformOpOrder = ["xformOp:translate", "xformOp:scale"]
            rel material:binding = </Generator/Looks/PanelBlack>
        }
        def Xform "LoadGauge"
        {
            double3 xformOp:translate = (-0.120, -0.070, 0.120)
            uniform token[] xformOpOrder = ["xformOp:translate"]

            def Cylinder "Face"
            {
                uniform token axis = "Y"
                double radius = 0.110
                double height = 0.020
                double3 xformOp:translate = (0.000, 0.000, 0.000)
                uniform token[] xformOpOrder = ["xformOp:translate"]
                rel material:binding = </Generator/Looks/MetalGrey>
            }
            def Xform "Needle"
            {
                double3 xformOp:translate = (0.000, -0.018, 0.000)
                double xformOp:rotateX = 90.000
                double xformOp:rotateZ = 0.000
                uniform token[] xformOpOrder = ["xformOp:translate", "xformOp:rotateX", "xformOp:rotateZ"]

                def Cube "Pointer"
                {
                    double size = 1
                    double3 xformOp:translate = (0.000, 0.040, 0.000)
                    double3 xformOp:scale = (0.012, 0.075, 0.006)
                    uniform token[] xformOpOrder = ["xformOp:translate", "xformOp:scale"]
                    rel material:binding = </Generator/Looks/AlarmRed>
                }
            }
        }
        def Xform "TempGauge"
        {
            double3 xformOp:translate = (0.120, -0.070, 0.120)
            uniform token[] xformOpOrder = ["xformOp:translate"]

            def Cylinder "Face"
            {
                uniform token axis = "Y"
                double radius = 0.110
                double height = 0.020
                double3 xformOp:translate = (0.000, 0.000, 0.000)
                uniform token[] xformOpOrder = ["xformOp:translate"]
                rel material:binding = </Generator/Looks/MetalGrey>
            }
            def Xform "Needle"
            {
                double3 xformOp:translate = (0.000, -0.018, 0.000)
                double xformOp:rotateX = 90.000
                double xformOp:rotateZ = 0.000
                uniform token[] xformOpOrder = ["xformOp:translate", "xformOp:rotateX", "xformOp:rotateZ"]

                def Cube "Pointer"
                {
                    double size = 1
                    double3 xformOp:translate = (0.000, 0.040, 0.000)
                    double3 xformOp:scale = (0.012, 0.075, 0.006)
                    uniform token[] xformOpOrder = ["xformOp:translate", "xformOp:scale"]
                    rel material:binding = </Generator/Looks/AlarmRed>
                }
            }
        }
        def Sphere "RunLamp"
        {
            double radius = 0.050
            double3 xformOp:translate = (0.000, -0.070, -0.180)
            uniform token[] xformOpOrder = ["xformOp:translate"]
            rel material:binding = </Generator/Looks/LampGreen>
            token visibility = "invisible"
        }
    }
    def Xform "FuelTank"
    {
        double3 xformOp:translate = (0.000, 0.000, 0.405)
        uniform token[] xformOpOrder = ["xformOp:translate"]

        def Cube "Shell"
        {
            double size = 1
            double3 xformOp:translate = (0.000, 0.000, 0.000)
            double3 xformOp:scale = (2.200, 1.100, 0.550)
            uniform token[] xformOpOrder = ["xformOp:translate", "xformOp:scale"]
            rel material:binding = </Generator/Looks/MetalGrey>
        }
        def Cube "Surface"
        {
            double size = 1
            matrix4d xformOp:transform = ( (1.000, 0.000, 0.000, 0.000), (0.000, 1.000, 0.000, 0.000), (0.000, 0.000, 1.000, 0.000), (0.000, 0.000, 0.165, 1.000) )
            uniform token[] xformOpOrder = ["xformOp:transform"]
            rel material:binding = </Generator/Looks/FluidAmber>
        }
    }
    def Cube "Battery"
    {
        double size = 1
        double3 xformOp:translate = (-1.550, -0.420, 0.350)
        double3 xformOp:scale = (0.450, 0.300, 0.280)
        uniform token[] xformOpOrder = ["xformOp:translate", "xformOp:scale"]
        rel material:binding = </Generator/Looks/PanelBlack>
    }
    def Mesh "AlarmRing"
    {
        point3f[] points = [
        (2.450, 0.000, 0.020),
        (2.429, 0.320, 0.020),
        (2.231, 0.294, 0.020),
        (2.250, 0.000, 0.020),
        (2.429, 0.320, 0.020),
        (2.367, 0.634, 0.020),
        (2.173, 0.582, 0.020),
        (2.231, 0.294, 0.020),
        (2.367, 0.634, 0.020),
        (2.264, 0.938, 0.020),
        (2.079, 0.861, 0.020),
        (2.173, 0.582, 0.020),
        (2.264, 0.938, 0.020),
        (2.122, 1.225, 0.020),
        (1.949, 1.125, 0.020),
        (2.079, 0.861, 0.020),
        (2.122, 1.225, 0.020),
        (1.944, 1.491, 0.020),
        (1.785, 1.370, 0.020),
        (1.949, 1.125, 0.020),
        (1.944, 1.491, 0.020),
        (1.732, 1.732, 0.020),
        (1.591, 1.591, 0.020),
        (1.785, 1.370, 0.020),
        (1.732, 1.732, 0.020),
        (1.491, 1.944, 0.020),
        (1.370, 1.785, 0.020),
        (1.591, 1.591, 0.020),
        (1.491, 1.944, 0.020),
        (1.225, 2.122, 0.020),
        (1.125, 1.949, 0.020),
        (1.370, 1.785, 0.020),
        (1.225, 2.122, 0.020),
        (0.938, 2.264, 0.020),
        (0.861, 2.079, 0.020),
        (1.125, 1.949, 0.020),
        (0.938, 2.264, 0.020),
        (0.634, 2.367, 0.020),
        (0.582, 2.173, 0.020),
        (0.861, 2.079, 0.020),
        (0.634, 2.367, 0.020),
        (0.320, 2.429, 0.020),
        (0.294, 2.231, 0.020),
        (0.582, 2.173, 0.020),
        (0.320, 2.429, 0.020),
        (0.000, 2.450, 0.020),
        (0.000, 2.250, 0.020),
        (0.294, 2.231, 0.020),
        (0.000, 2.450, 0.020),
        (-0.320, 2.429, 0.020),
        (-0.294, 2.231, 0.020),
        (0.000, 2.250, 0.020),
        (-0.320, 2.429, 0.020),
        (-0.634, 2.367, 0.020),
        (-0.582, 2.173, 0.020),
        (-0.294, 2.231, 0.020),
        (-0.634, 2.367, 0.020),
        (-0.938, 2.264, 0.020),
        (-0.861, 2.079, 0.020),
        (-0.582, 2.173, 0.020),
        (-0.938, 2.264, 0.020),
        (-1.225, 2.122, 0.020),
        (-1.125, 1.949, 0.020),
        (-0.861, 2.079, 0.020),
        (-1.225, 2.122, 0.020),
        (-1.491, 1.944, 0.020),
        (-1.370, 1.785, 0.020),
        (-1.125, 1.949, 0.020),
        (-1.491, 1.944, 0.020),
        (-1.732, 1.732, 0.020),
        (-1.591, 1.591, 0.020),
        (-1.370, 1.785, 0.020),
        (-1.732, 1.732, 0.020),
        (-1.944, 1.491, 0.020),
        (-1.785, 1.370, 0.020),
        (-1.591, 1.591, 0.020),
        (-1.944, 1.491, 0.020),
        (-2.122, 1.225, 0.020),
        (-1.949, 1.125, 0.020),
        (-1.785, 1.370, 0.020),
        (-2.122, 1.225, 0.020),
        (-2.264, 0.938, 0.020),
        (-2.079, 0.861, 0.020),
        (-1.949, 1.125, 0.020),
        (-2.264, 0.938, 0.020),
        (-2.367, 0.634, 0.020),
        (-2.173, 0.582, 0.020),
        (-2.079, 0.861, 0.020),
        (-2.367, 0.634, 0.020),
        (-2.429, 0.320, 0.020),
        (-2.231, 0.294, 0.020),
        (-2.173, 0.582, 0.020),
        (-2.429, 0.320, 0.020),
        (-2.450, 0.000, 0.020),
        (-2.250, 0.000, 0.020),
        (-2.231, 0.294, 0.020),
        (-2.450, 0.000, 0.020),
        (-2.429, -0.320, 0.020),
        (-2.231, -0.294, 0.020),
        (-2.250, 0.000, 0.020),
        (-2.429, -0.320, 0.020),
        (-2.367, -0.634, 0.020),
        (-2.173, -0.582, 0.020),
        (-2.231, -0.294, 0.020),
        (-2.367, -0.634, 0.020),
        (-2.264, -0.938, 0.020),
        (-2.079, -0.861, 0.020),
        (-2.173, -0.582, 0.020),
        (-2.264, -0.938, 0.020),
        (-2.122, -1.225, 0.020),
        (-1.949, -1.125, 0.020),
        (-2.079, -0.861, 0.020),
        (-2.122, -1.225, 0.020),
        (-1.944, -1.491, 0.020),
        (-1.785, -1.370, 0.020),
        (-1.949, -1.125, 0.020),
        (-1.944, -1.491, 0.020),
        (-1.732, -1.732, 0.020),
        (-1.591, -1.591, 0.020),
        (-1.785, -1.370, 0.020),
        (-1.732, -1.732, 0.020),
        (-1.491, -1.944, 0.020),
        (-1.370, -1.785, 0.020),
        (-1.591, -1.591, 0.020),
        (-1.491, -1.944, 0.020),
        (-1.225, -2.122, 0.020),
        (-1.125, -1.949, 0.020),
        (-1.370, -1.785, 0.020),
        (-1.225, -2.122, 0.020),
        (-0.938, -2.264, 0.020),
        (-0.861, -2.079, 0.020),
        (-1.125, -1.949, 0.020),
        (-0.938, -2.264, 0.020),
        (-0.634, -2.367, 0.020),
        (-0.582, -2.173, 0.020),
        (-0.861, -2.079, 0.020),
        (-0.634, -2.367, 0.020),
        (-0.320, -2.429, 0.020),
        (-0.294, -2.231, 0.020),
        (-0.582, -2.173, 0.020),
        (-0.320, -2.429, 0.020),
        (0.000, -2.450, 0.020),
        (0.000, -2.250, 0.020),
        (-0.294, -2.231, 0.020),
        (0.000, -2.450, 0.020),
        (0.320, -2.429, 0.020),
        (0.294, -2.231, 0.020),
        (0.000, -2.250, 0.020),
        (0.320, -2.429, 0.020),
        (0.634, -2.367, 0.020),
        (0.582, -2.173, 0.020),
        (0.294, -2.231, 0.020),
        (0.634, -2.367, 0.020),
        (0.938, -2.264, 0.020),
        (0.861, -2.079, 0.020),
        (0.582, -2.173, 0.020),
        (0.938, -2.264, 0.020),
        (1.225, -2.122, 0.020),
        (1.125, -1.949, 0.020),
        (0.861, -2.079, 0.020),
        (1.225, -2.122, 0.020),
        (1.491, -1.944, 0.020),
        (1.370, -1.785, 0.020),
        (1.125, -1.949, 0.020),
        (1.491, -1.944, 0.020),
        (1.732, -1.732, 0.020),
        (1.591, -1.591, 0.020),
        (1.370, -1.785, 0.020),
        (1.732, -1.732, 0.020),
        (1.944, -1.491, 0.020),
        (1.785, -1.370, 0.020),
        (1.591, -1.591, 0.020),
        (1.944, -1.491, 0.020),
        (2.122, -1.225, 0.020),
        (1.949, -1.125, 0.020),
        (1.785, -1.370, 0.020),
        (2.122, -1.225, 0.020),
        (2.264, -0.938, 0.020),
        (2.079, -0.861, 0.020),
        (1.949, -1.125, 0.020),
        (2.264, -0.938, 0.020),
        (2.367, -0.634, 0.020),
        (2.173, -0.582, 0.020),
        (2.079, -0.861, 0.020),
        (2.367, -0.634, 0.020),
        (2.429, -0.320, 0.020),
        (2.231, -0.294, 0.020),
        (2.173, -0.582, 0.020),
        (2.429, -0.320, 0.020),
        (2.450, 0.000, 0.020),
        (2.250, 0.000, 0.020),
        (2.231, -0.294, 0.020)
    ]
        int[] faceVertexCounts = [4, 4, 4, 4, 4, 4, 4, 4, 4, 4, 4, 4, 4, 4, 4, 4, 4, 4, 4, 4, 4, 4, 4, 4, 4, 4, 4, 4, 4, 4, 4, 4, 4, 4, 4, 4, 4, 4, 4, 4, 4, 4, 4, 4, 4, 4, 4, 4]
        int[] faceVertexIndices = [
        0, 1, 2, 3, 4, 5, 6, 7, 8, 9, 10, 11, 12, 13, 14, 15,
        16, 17, 18, 19, 20, 21, 22, 23, 24, 25, 26, 27, 28, 29, 30, 31,
        32, 33, 34, 35, 36, 37, 38, 39, 40, 41, 42, 43, 44, 45, 46, 47,
        48, 49, 50, 51, 52, 53, 54, 55, 56, 57, 58, 59, 60, 61, 62, 63,
        64, 65, 66, 67, 68, 69, 70, 71, 72, 73, 74, 75, 76, 77, 78, 79,
        80, 81, 82, 83, 84, 85, 86, 87, 88, 89, 90, 91, 92, 93, 94, 95,
        96, 97, 98, 99, 100, 101, 102, 103, 104, 105, 106, 107, 108, 109, 110, 111,
        112, 113, 114, 115, 116, 117, 118, 119, 120, 121, 122, 123, 124, 125, 126, 127,
        128, 129, 130, 131, 132, 133, 134, 135, 136, 137, 138, 139, 140, 141, 142, 143,
        144, 145, 146, 147, 148, 149, 150, 151, 152, 153, 154, 155, 156, 157, 158, 159,
        160, 161, 162, 163, 164, 165, 166, 167, 168, 169, 170, 171, 172, 173, 174, 175,
        176, 177, 178, 179, 180, 181, 182, 183, 184, 185, 186, 187, 188, 189, 190, 191
    ]
        rel material:binding = </Generator/Looks/AlarmRed>
        token visibility = "invisible"
    }
}
